<svg xmlns="http://www.w3.org/2000/svg" viewBox="0 0 960 300">

<g fill="none" stroke="#CFE6DA" stroke-linecap="round">
<path d="M60 236 C 96 214,118 208,150 208 C 230 208,260 104,370 104" stroke-width="14"/>
<path d="M370 104 C 480 104,500 206,600 206" stroke-width="18"/>
<path d="M600 206 C 700 206,720 100,820 100 C 872 100,890 108,910 128" stroke-width="22"/>
</g>
<path d="M60 236 C 96 214,118 208,150 208 C 230 208,260 104,370 104 C 480 104,500 206,600 206 C 700 206,720 100,820 100 C 872 100,890 108,910 128" fill="none" stroke="#7ECBA5" stroke-width="3" stroke-dasharray="11 13" stroke-linecap="round"/>
<circle cx="60" cy="236" r="9" fill="#7ECBA5"/>

<g stroke="#7ECBA5" stroke-width="2" stroke-dasharray="5 6" fill="none" stroke-linecap="round">
<line x1="132" y1="150" x2="150" y2="166"/>
<line x1="370" y1="146" x2="370" y2="176"/>
<line x1="600" y1="150" x2="600" y2="164"/>
<line x1="820" y1="150" x2="820" y2="174"/>
</g>

<rect x="78" y="88" width="104" height="62" rx="11" fill="#FFFFFF" stroke="#7ECBA5" stroke-width="2"/>
<rect x="94" y="102" width="38" height="8" rx="4" fill="#128A54"/>
<rect x="94" y="118" width="58" height="6" rx="3" fill="#CFE6DA"/>
<rect x="94" y="130" width="44" height="6" rx="3" fill="#CFE6DA"/>
<rect x="150" y="116" width="18" height="8" rx="4" fill="#7ECBA5"/>

<rect x="318" y="176" width="104" height="62" rx="11" fill="#FFFFFF" stroke="#7ECBA5" stroke-width="2"/>
<line x1="332" y1="228" x2="408" y2="228" stroke="#CFE6DA" stroke-width="2.5" stroke-linecap="round"/>
<rect x="336" y="210" width="14" height="16" rx="4" fill="#CFE6DA"/>
<rect x="356" y="198" width="14" height="28" rx="4" fill="#7ECBA5"/>
<rect x="376" y="188" width="14" height="38" rx="4" fill="#128A54"/>
<circle cx="402" cy="192" r="5" fill="#E9A83A"/>

<rect x="548" y="88" width="104" height="62" rx="11" fill="#FFFFFF" stroke="#7ECBA5" stroke-width="2"/>
<g stroke="#128A54" stroke-width="2" stroke-linejoin="round">
<path d="M558 118 L578 108 L598 118 L578 128 Z" fill="#E9F5EE"/>
<path d="M558 118 L578 128 L578 146 L558 136 Z" fill="#CFE6DA"/>
<path d="M598 118 L578 128 L578 146 L598 136 Z" fill="#7ECBA5"/>
</g>
<rect x="610" y="110" width="30" height="6" rx="3" fill="#CFE6DA"/>
<rect x="610" y="124" width="22" height="6" rx="3" fill="#CFE6DA"/>

<rect x="768" y="174" width="104" height="62" rx="11" fill="#FFFFFF" stroke="#7ECBA5" stroke-width="2"/>
<circle cx="798" cy="205" r="14" fill="#128A54"/>
<path d="M791 205 l4.5 4.5 9 -10" stroke="#FFFFFF" stroke-width="3" fill="none" stroke-linecap="round" stroke-linejoin="round"/>
<rect x="822" y="194" width="34" height="6" rx="3" fill="#CFE6DA"/>
<rect x="822" y="208" width="26" height="6" rx="3" fill="#CFE6DA"/>

<g fill="#128A54" stroke="#FFFFFF" stroke-width="5"><circle cx="150" cy="208" r="30"/><circle cx="370" cy="104" r="30"/><circle cx="600" cy="206" r="30"/><circle cx="820" cy="100" r="30"/></g>
<circle cx="820" cy="100" r="50" fill="none" stroke="#E9A83A" stroke-width="3"/>

<circle cx="910" cy="128" r="17" fill="#128A54"/>
<path d="M901.5 128 l5.5 5.5 11 -12" stroke="#FFFFFF" stroke-width="3.6" fill="none" stroke-linecap="round" stroke-linejoin="round"/>

</svg>
