<svg xmlns="http://www.w3.org/2000/svg" viewBox="0 0 400 310">
  <rect width="400" height="310" fill="#F6F8F5"/>
  <text x="20" y="34" font-family="'Noto Sans TC', sans-serif" font-size="16" font-weight="700" fill="#0a1510">供應商評價</text>

  <!-- summary card -->
  <rect x="20" y="48" width="360" height="92" rx="14" fill="#ffffff" stroke="#e8efe6"/>
  <text x="78" y="100" font-family="'Noto Sans TC', sans-serif" font-size="42" font-weight="800" fill="#1f9e4e" text-anchor="middle">4.9</text>
  <g fill="#f4b740">
    <path d="M58 110 l3.5 7 7.7 1.1 -5.6 5.4 1.3 7.6 -6.9 -3.6 -6.9 3.6 1.3 -7.6 -5.6 -5.4 7.7 -1.1z"/>
    <path d="M78 110 l3.5 7 7.7 1.1 -5.6 5.4 1.3 7.6 -6.9 -3.6 -6.9 3.6 1.3 -7.6 -5.6 -5.4 7.7 -1.1z"/>
    <path d="M98 110 l3.5 7 7.7 1.1 -5.6 5.4 1.3 7.6 -6.9 -3.6 -6.9 3.6 1.3 -7.6 -5.6 -5.4 7.7 -1.1z"/>
  </g>
  <text x="78" y="134" font-family="'Noto Sans TC', sans-serif" font-size="10" fill="#6b7c70" text-anchor="middle">共 1,026 則評價</text>

  <!-- distribution bars -->
  <g font-family="'Noto Sans TC', sans-serif" font-size="10" fill="#6b7c70">
    <text x="150" y="68">5★</text>
    <rect x="166" y="60" width="180" height="8" rx="4" fill="#e8efe6"/>
    <rect x="166" y="60" width="168" height="8" rx="4" fill="#46c138"/>
    <text x="354" y="68">82%</text>
    <text x="150" y="84">4★</text>
    <rect x="166" y="76" width="180" height="8" rx="4" fill="#e8efe6"/>
    <rect x="166" y="76" width="108" height="8" rx="4" fill="#7cf06b"/>
    <text x="354" y="84">12%</text>
    <text x="150" y="100">3★</text>
    <rect x="166" y="92" width="180" height="8" rx="4" fill="#e8efe6"/>
    <rect x="166" y="92" width="40" height="8" rx="4" fill="#bff0b2"/>
    <text x="354" y="100">4%</text>
    <text x="150" y="116">2★</text>
    <rect x="166" y="108" width="180" height="8" rx="4" fill="#e8efe6"/>
    <rect x="166" y="108" width="14" height="8" rx="4" fill="#dce6d9"/>
    <text x="354" y="116">1%</text>
    <text x="150" y="132">1★</text>
    <rect x="166" y="124" width="180" height="8" rx="4" fill="#e8efe6"/>
    <rect x="166" y="124" width="8" height="8" rx="4" fill="#dce6d9"/>
    <text x="354" y="132">1%</text>
  </g>

  <!-- review card 1 -->
  <rect x="20" y="152" width="360" height="68" rx="14" fill="#ffffff" stroke="#e8efe6"/>
  <circle cx="44" cy="178" r="14" fill="#46c138"/>
  <text x="44" y="183" font-family="'Noto Sans TC', sans-serif" font-size="12" font-weight="700" fill="#ffffff" text-anchor="middle">林</text>
  <text x="66" y="174" font-family="'Noto Sans TC', sans-serif" font-size="12" font-weight="700" fill="#0a1510">林老闆 · 京饌餐廳</text>
  <g fill="#f4b740" transform="translate(66,180) scale(0.55)">
    <path d="M0 8 l3.5 7 7.7 1.1 -5.6 5.4 1.3 7.6 -6.9 -3.6 -6.9 3.6 1.3 -7.6 -5.6 -5.4 7.7 -1.1z" transform="translate(0,0)"/>
    <path d="M0 8 l3.5 7 7.7 1.1 -5.6 5.4 1.3 7.6 -6.9 -3.6 -6.9 3.6 1.3 -7.6 -5.6 -5.4 7.7 -1.1z" transform="translate(22,0)"/>
    <path d="M0 8 l3.5 7 7.7 1.1 -5.6 5.4 1.3 7.6 -6.9 -3.6 -6.9 3.6 1.3 -7.6 -5.6 -5.4 7.7 -1.1z" transform="translate(44,0)"/>
    <path d="M0 8 l3.5 7 7.7 1.1 -5.6 5.4 1.3 7.6 -6.9 -3.6 -6.9 3.6 1.3 -7.6 -5.6 -5.4 7.7 -1.1z" transform="translate(66,0)"/>
    <path d="M0 8 l3.5 7 7.7 1.1 -5.6 5.4 1.3 7.6 -6.9 -3.6 -6.9 3.6 1.3 -7.6 -5.6 -5.4 7.7 -1.1z" transform="translate(88,0)"/>
  </g>
  <rect x="66" y="196" width="280" height="6" rx="3" fill="#f1f5f0"/>
  <rect x="66" y="207" width="210" height="6" rx="3" fill="#f1f5f0"/>

  <!-- review card 2 -->
  <rect x="20" y="230" width="360" height="68" rx="14" fill="#ffffff" stroke="#e8efe6"/>
  <circle cx="44" cy="256" r="14" fill="#1f9e4e"/>
  <text x="44" y="261" font-family="'Noto Sans TC', sans-serif" font-size="12" font-weight="700" fill="#ffffff" text-anchor="middle">陳</text>
  <text x="66" y="252" font-family="'Noto Sans TC', sans-serif" font-size="12" font-weight="700" fill="#0a1510">陳主廚 · 海町日料</text>
  <g fill="#f4b740" transform="translate(66,258) scale(0.55)">
    <path d="M0 8 l3.5 7 7.7 1.1 -5.6 5.4 1.3 7.6 -6.9 -3.6 -6.9 3.6 1.3 -7.6 -5.6 -5.4 7.7 -1.1z" transform="translate(0,0)"/>
    <path d="M0 8 l3.5 7 7.7 1.1 -5.6 5.4 1.3 7.6 -6.9 -3.6 -6.9 3.6 1.3 -7.6 -5.6 -5.4 7.7 -1.1z" transform="translate(22,0)"/>
    <path d="M0 8 l3.5 7 7.7 1.1 -5.6 5.4 1.3 7.6 -6.9 -3.6 -6.9 3.6 1.3 -7.6 -5.6 -5.4 7.7 -1.1z" transform="translate(44,0)"/>
    <path d="M0 8 l3.5 7 7.7 1.1 -5.6 5.4 1.3 7.6 -6.9 -3.6 -6.9 3.6 1.3 -7.6 -5.6 -5.4 7.7 -1.1z" transform="translate(66,0)"/>
    <path d="M0 8 l3.5 7 7.7 1.1 -5.6 5.4 1.3 7.6 -6.9 -3.6 -6.9 3.6 1.3 -7.6 -5.6 -5.4 7.7 -1.1z" transform="translate(88,0)"/>
  </g>
  <rect x="66" y="274" width="280" height="6" rx="3" fill="#f1f5f0"/>
  <rect x="66" y="285" width="180" height="6" rx="3" fill="#f1f5f0"/>
</svg>
